<svg width="1024" height="512" viewBox="0 0 1024 512" xmlns="http://www.w3.org/2000/svg">
  <defs>
    <linearGradient id="bg" x1="0" y1="0" x2="1" y2="1">
      <stop offset="0%" stop-color="#FFF8F2"/>
      <stop offset="100%" stop-color="#EFF5FF"/>
    </linearGradient>
    <linearGradient id="ink" x1="0" y1="0" x2="1" y2="1">
      <stop offset="0%" stop-color="#233258"/>
      <stop offset="100%" stop-color="#1A2746"/>
    </linearGradient>
  </defs>

  <rect width="1024" height="512" rx="32" fill="#F6F8FE"/>

  <g transform="translate(86,70)">
    <rect width="230" height="230" rx="36" fill="url(#bg)"/>

    <rect x="44" y="118" width="142" height="82" rx="34" fill="#FBF7EF"/>
    <rect x="54" y="88" width="122" height="84" rx="30" fill="#FFFDF8"/>

    <rect x="28" y="104" width="26" height="42" rx="10" fill="#F4EBDE"/>
    <rect x="176" y="104" width="26" height="42" rx="10" fill="#F4EBDE"/>
    <rect x="34" y="110" width="14" height="24" fill="#F8CDD4"/>
    <rect x="182" y="110" width="14" height="24" fill="#F8CDD4"/>

    <rect x="72" y="62" width="86" height="10" fill="#BFD2EE"/>
    <rect x="82" y="49" width="66" height="13" fill="#FFFDF8"/>
    <rect x="94" y="36" width="42" height="13" fill="#FFFDF8"/>

    <rect x="84" y="104" width="8" height="8" fill="#283A61"/>
    <rect x="139" y="105" width="15" height="5" rx="2" fill="#283A61"/>
    <rect x="90" y="122" width="20" height="8" fill="#F7BEC8"/>
    <rect x="134" y="122" width="20" height="8" fill="#F7BEC8"/>
    <rect x="112" y="114" width="8" height="4" fill="#283A61"/>
    <rect x="108" y="118" width="16" height="4" fill="#283A61"/>

    <polygon points="46,152 182,152 134,182 92,182" fill="#79B4F3"/>
    <rect x="136" y="176" width="18" height="26" fill="#75C186"/>

    <rect x="66" y="194" width="18" height="16" fill="#B9896C"/>
    <rect x="146" y="194" width="18" height="16" fill="#B9896C"/>

    <text x="115" y="268" text-anchor="middle" font-size="22" font-family="Segoe UI, PingFang SC, Microsoft YaHei, sans-serif" fill="#223457" font-weight="700">像素小羊卷</text>
  </g>

  <text x="356" y="198" font-size="84" font-weight="700" font-family="Segoe UI, PingFang SC, Microsoft YaHei, sans-serif" fill="url(#ink)">ColorWalking</text>
  <text x="356" y="270" font-size="34" font-family="Segoe UI, PingFang SC, Microsoft YaHei, sans-serif" fill="#55688A">Walk in color, walk in mood.</text>
</svg>
