<svg width="512" height="512" viewBox="0 0 512 512" xmlns="http://www.w3.org/2000/svg" role="img" aria-label="LambRoll icon C">
  <rect width="512" height="512" rx="124" fill="#E8EFF6"/>
  <g fill="#FBF7F0" stroke="#1F3A58" stroke-width="20" stroke-linecap="round" stroke-linejoin="round">
    <path d="M116 252 Q116 220 144 208 Q170 198 194 220"/>
    <path d="M396 252 Q396 220 368 208 Q342 198 318 220"/>
    <path d="M144 296 Q144 232 196 214 Q256 194 316 214 Q368 232 368 296 Q368 366 316 388 Q256 410 196 388 Q144 366 144 296 Z"/>
    <circle cx="206" cy="186" r="36"/>
    <circle cx="256" cy="170" r="40"/>
    <circle cx="306" cy="186" r="36"/>
  </g>
  <circle cx="224" cy="302" r="10" fill="#1F3A58"/>
  <circle cx="288" cy="302" r="10" fill="#1F3A58"/>
  <path d="M226 354 Q256 376 286 354" fill="none" stroke="#1F3A58" stroke-width="12" stroke-linecap="round"/>
  <path d="M230 404 H282 L256 438 Z" fill="#F3B7B0"/>
</svg>
