<svg width="1024" height="512" viewBox="0 0 1024 512" xmlns="http://www.w3.org/2000/svg">
  <defs>
    <linearGradient id="g-bg" x1="0" y1="0" x2="1" y2="1">
      <stop offset="0%" stop-color="#FFF7F4"/>
      <stop offset="100%" stop-color="#EEF5FF"/>
    </linearGradient>
    <linearGradient id="g-ink" x1="0" y1="0" x2="1" y2="1">
      <stop offset="0%" stop-color="#28375C"/>
      <stop offset="100%" stop-color="#1C2948"/>
    </linearGradient>
  </defs>

  <rect width="1024" height="512" rx="32" fill="#F7F9FF"/>

  <g transform="translate(84,62)">
    <rect width="236" height="236" rx="38" fill="url(#g-bg)"/>

    <rect x="48" y="118" width="142" height="86" rx="34" fill="#FCF8F1"/>
    <rect x="58" y="86" width="122" height="86" rx="30" fill="#FFFDF8"/>

    <rect x="30" y="104" width="26" height="44" rx="12" fill="#F4EBDD"/>
    <rect x="180" y="104" width="26" height="44" rx="12" fill="#F4EBDD"/>
    <rect x="35" y="112" width="14" height="26" rx="5" fill="#F8CFD8"/>
    <rect x="187" y="112" width="14" height="26" rx="5" fill="#F8CFD8"/>

    <rect x="74" y="62" width="90" height="10" fill="#C2D3EE"/>
    <rect x="84" y="48" width="70" height="14" fill="#FFFDF8"/>
    <rect x="97" y="34" width="44" height="14" fill="#FFFDF8"/>

    <circle cx="92" cy="112" r="7" fill="#2A3A62"/>
    <circle cx="90" cy="109" r="2" fill="#FFFFFF"/>
    <rect x="136" y="108" width="22" height="6" rx="3" fill="#2A3A62"/>

    <rect x="88" y="126" width="22" height="8" rx="4" fill="#F8C0CB"/>
    <rect x="134" y="126" width="22" height="8" rx="4" fill="#F8C0CB"/>

    <rect x="112" y="116" width="8" height="4" rx="2" fill="#2A3A62"/>
    <path d="M108 122 Q116 132 124 122" fill="none" stroke="#2A3A62" stroke-width="4" stroke-linecap="round"/>
    <circle cx="116" cy="128" r="6" fill="#FF97B2"/>

    <polygon points="44,154 190,154 142,186 90,186" fill="#8AC0FF"/>
    <polygon points="44,154 118,180 190,154 142,186 90,186" fill="#6FAEEB"/>
    <rect x="144" y="180" width="20" height="28" rx="6" fill="#7CC786"/>

    <rect x="68" y="196" width="20" height="16" rx="5" fill="#BA8C72"/>
    <rect x="146" y="196" width="20" height="16" rx="5" fill="#BA8C72"/>

    <text x="118" y="276" text-anchor="middle" font-size="22" font-family="Segoe UI, PingFang SC, Microsoft YaHei, sans-serif" fill="#223457" font-weight="700">像素小羊卷</text>
  </g>

  <text x="356" y="194" font-size="84" font-weight="700" font-family="Segoe UI, PingFang SC, Microsoft YaHei, sans-serif" fill="url(#g-ink)">ColorWalking</text>
  <text x="356" y="266" font-size="34" font-family="Segoe UI, PingFang SC, Microsoft YaHei, sans-serif" fill="#566A90">Walk in color, walk in mood.</text>
  <text x="356" y="316" font-size="26" font-family="Segoe UI, PingFang SC, Microsoft YaHei, sans-serif" fill="#6E7FA1">蓝围巾小羊卷，今天也陪你一起慢慢变好。</text>
</svg>
